<svg t="1619425704957" class="icon" viewBox="0 0 1024 1024" version="1.1" xmlns="http://www.w3.org/2000/svg" p-id="1433" width="128" height="128"><path d="M640.96 955.093333l24.426667-58.453333-42.666667-3.946667a733.226667 733.226667 0 0 1-110.72 8.213334A715.626667 715.626667 0 0 1 141.653333 800l-4.8-2.773333-2.453333-5.013334a645.76 645.76 0 0 1-18.88-537.6l1.813333-5.013333 4.906667-3.2A711.146667 711.146667 0 0 1 512 134.08 711.466667 711.466667 0 0 1 902.293333 246.4l4.906667 3.2 2.24 5.44a645.76 645.76 0 0 1-18.88 537.6l-2.453333 4.906667-4.693334 2.88a668.693333 668.693333 0 0 1-111.36 53.973333l-14.08 47.253333-24.533333 12.586667 74.666667 76.693333z" fill="#333333" p-id="1434"></path><path d="M512 153.173333A695.146667 695.146667 0 0 1 891.84 262.4a627.946667 627.946667 0 0 1-18.346667 521.706667 668.053333 668.053333 0 0 1-117.333333 55.68l-14.4 48.533333-40.32 20.586667 48.426667 50.026666-82.56-17.813333L693.333333 880l-71.253333-6.613333a706.88 706.88 0 0 1-110.08 8.32 698.986667 698.986667 0 0 1-360.533333-97.6 627.946667 627.946667 0 0 1-18.346667-521.706667A694.613333 694.613333 0 0 1 512 153.173333m0-38.293333a730.133333 730.133333 0 0 0-399.786667 115.413333l-9.813333 6.506667-4.586667 10.666667A665.813333 665.813333 0 0 0 117.333333 801.28l4.906667 9.92 9.493333 5.653333A735.146667 735.146667 0 0 0 512 920a756.053333 756.053333 0 0 0 110.933333-8l14.72 1.386667-5.44 13.013333-17.813333 42.666667 45.12 9.6 49.92 10.666666 32 7.04 123.84 26.56-87.68-90.666666-12.373333-12.8 8.746666-4.48 4.693334-15.68 8.96-30.4a686.08 686.08 0 0 0 105.706666-52.16l9.386667-5.653334 4.906667-9.813333a665.813333 665.813333 0 0 0 19.52-553.706667l-4.586667-10.666666-9.813333-6.506667A730.453333 730.453333 0 0 0 512 114.88z" p-id="1435"></path><path d="M939.84 503.146667a621.866667 621.866667 0 0 1-66.346667 280.853333 661.333333 661.333333 0 0 1-117.333333 55.786667l-14.4 48.533333-40.32 20.586667 48.426667 50.026666-82.56-17.813333L693.333333 880l-71.253333-6.613333a720.32 720.32 0 0 1-110.08 8.32 698.026667 698.026667 0 0 1-360.533333-97.706667c129.493333 34.773333 404.586667 92.48 601.813333-9.066667a268.693333 268.693333 0 0 0 58.986667-39.68C962.453333 600.64 907.52 330.666667 891.84 262.4a620.8 620.8 0 0 1 48 240.746667z" fill="#222222" p-id="1436"></path><path d="M263.573333 426.773333m-97.706666 0a97.706667 97.706667 0 1 0 195.413333 0 97.706667 97.706667 0 1 0-195.413333 0Z" fill="#FFFFFF" p-id="1437"></path><path d="M675.84 404.053333m-172.373333 0a172.373333 172.373333 0 1 0 344.746666 0 172.373333 172.373333 0 1 0-344.746666 0Z" fill="#FFFFFF" p-id="1438"></path><path d="M117.973333 661.333333a754.666667 754.666667 0 0 0 35.733334 72.64 768 768 0 0 0 57.28 88.213334c100.906667-41.813333 293.013333-102.08 506.986666-43.946667a696.746667 696.746667 0 0 1 105.493334 38.186667 191.146667 191.146667 0 0 0 65.066666-53.333334 194.133333 194.133333 0 0 0 35.52-74.666666A2374.293333 2374.293333 0 0 0 117.973333 661.333333z" fill="#FFFFFF" p-id="1439"></path><path d="M214.933333 649.706667q2.88 28.373333 6.613334 57.706666 6.72 53.333333 15.253333 104.213334M259.626667 645.76c5.226667 13.12 10.666667 26.773333 15.36 40.853333 12.48 35.52 22.293333 69.653333 30.186666 101.866667M323.306667 641.706667q20.053333 32 40.213333 64Q381.866667 736 399.466667 764.8M443.306667 638.72q2.026667 29.226667 5.653333 60.693333t7.68 58.56M546.026667 641.066667c-5.013333 37.546667-9.92 75.2-14.933334 112.746666M621.226667 645.546667a482.026667 482.026667 0 0 1 12.053333 49.813333 462.933333 462.933333 0 0 1 7.36 66.24M731.2 656.426667q-6.72 60.586667-13.226667 121.493333M817.706667 668.693333l-26.88 133.546667" fill="#FFFFFF" p-id="1440"></path><path d="M56.746667 126.933333l53.333333-1.173333c-1.493333 8.746667-2.88 17.493333-4.373333 26.24l112.96 55.04L158.826667 245.333333l-68.586667-88.533333c1.386667-6.72 2.666667-13.333333 3.946667-19.946667zM546.24 0l-67.52 42.666667 20.16 28.48L480.853333 117.333333l38.293334 2.88c-0.853333-16.64-1.813333-33.386667-2.666667-50.026666l-23.893333-25.6zM841.28 202.666667l51.84 47.146666 30.293333-77.12 53.333334 10.133334 12.16-62.826667q-13.76 19.84-28.266667 40l-40.213333-10.666667z" p-id="1441"></path></svg>
